HIERARCHY
ROOT RootJoint
{
    OFFSET   0.000000   0.000000   0.000000
    CHANNELS 6 Xposition Yposition Zposition Xrotation Yrotation Zrotation
    JOINT pelvis_lowerback
    {
        OFFSET   0.000000   0.093605   0.000000
        CHANNELS 3 Xrotation Yrotation Zrotation
        JOINT lowerback_torso
        {
            OFFSET   0.000000   0.100000   0.000000
            CHANNELS 3 Xrotation Yrotation Zrotation
            JOINT torso_head
            {
                OFFSET   0.000000   0.282350   0.000000
                CHANNELS 3 Xrotation Yrotation Zrotation
                End Site
                {
                    OFFSET   0.000000   0.192650   0.000000
                }
            }
            JOINT rTorso_Clavicle
            {
                OFFSET  -0.001000   0.157500   0.000000
                CHANNELS 3 Xrotation Yrotation Zrotation
                JOINT rShoulder
                {
                    OFFSET  -0.117647   0.000000   0.000000
                    CHANNELS 3 Xrotation Yrotation Zrotation
                    JOINT rElbow
                    {
                        OFFSET  -0.245000   0.000000   0.000000
                        CHANNELS 3 Xrotation Yrotation Zrotation
                        JOINT rWrist
                        {
                            OFFSET  -0.240000   0.000000   0.000000
                            CHANNELS 3 Xrotation Yrotation Zrotation
                            End Site
                            {
                                OFFSET  -0.116353  -0.002500   0.000000
                            }
                        }
                    }
                }
            }
            JOINT lTorso_Clavicle
            {
                OFFSET   0.001000   0.157500   0.000000
                CHANNELS 3 Xrotation Yrotation Zrotation
                JOINT lShoulder
                {
                    OFFSET   0.117647   0.000000   0.000000
                    CHANNELS 3 Xrotation Yrotation Zrotation
                    JOINT lElbow
                    {
                        OFFSET   0.245000   0.000000   0.000000
                        CHANNELS 3 Xrotation Yrotation Zrotation
                        JOINT lWrist
                        {
                            OFFSET   0.240000   0.000000   0.000000
                            CHANNELS 3 Xrotation Yrotation Zrotation
                            End Site
                            {
                                OFFSET   0.116353  -0.002500   0.000000
                            }
                        }
                    }
                }
            }
        }
    }
    JOINT rHip
    {
        OFFSET  -0.100000  -0.051395   0.000000
        CHANNELS 3 Xrotation Yrotation Zrotation
        JOINT rKnee
        {
            OFFSET   0.000000  -0.410000   0.000000
            CHANNELS 3 Xrotation Yrotation Zrotation
            JOINT rAnkle
            {
                OFFSET   0.000000  -0.390000   0.000000
                CHANNELS 3 Xrotation Yrotation Zrotation
                JOINT rToeJoint
                {
                    OFFSET   0.000000  -0.050000   0.130000
                    CHANNELS 3 Xrotation Yrotation Zrotation
                    End Site
                    {
                        OFFSET  -0.010000   0.002000   0.060000
                    }
                }
            }
        }
    }
    JOINT lHip
    {
        OFFSET   0.100000  -0.051395   0.000000
        CHANNELS 3 Xrotation Yrotation Zrotation
        JOINT lKnee
        {
            OFFSET   0.000000  -0.410000   0.000000
            CHANNELS 3 Xrotation Yrotation Zrotation
            JOINT lAnkle
            {
                OFFSET   0.000000  -0.390000   0.000000
                CHANNELS 3 Xrotation Yrotation Zrotation
                JOINT lToeJoint
                {
                    OFFSET   0.000000  -0.050000   0.130000
                    CHANNELS 3 Xrotation Yrotation Zrotation
                    End Site
                    {
                        OFFSET   0.010000   0.002000   0.060000
                    }
                }
            }
        }
    }
}
MOTION
Frames: 12
Frame Time:   0.008333
 -2.320135   0.946299   3.968443  -3.447548  -2.396299  -1.737404   8.326867   0.697778   1.591542   1.875583  -0.875998  -0.036920  -5.532673  -0.644602  -0.376262   3.148974   2.212910   0.499478  12.691153  13.012375  60.936638  -0.000767  11.248009   0.000057   5.681744   0.931286   4.587408   6.684735  -2.811752  -0.285872  14.858824 -19.143168 -58.497726   0.001837 -15.837659   0.000003   5.301437  -4.341246  -6.180237 -11.380005  -4.279561  -6.564343  41.307135   0.008831   0.005666  -0.730085  -5.449305   4.920269  -9.348621  -0.016345  -0.009091 -11.967820   0.685717   5.698245  40.157091   0.005469  -0.000521  16.682710   6.778392  -0.946771 -45.048390  -0.001017   0.001046
 -2.321068   0.958296   3.969676  -3.202555  -2.545817  -2.562071   7.654638   0.776337   2.503490   1.815898  -0.982209  -0.059131  -5.140675  -0.713546  -0.717357   3.679076   2.150586  -0.236948  12.951298  13.087905  61.515651  -0.000552  11.322286   0.000129   5.610206   0.930615   4.863306   7.092061  -2.422141   0.014967  15.110601 -19.269947 -59.019809   0.002234 -16.192269   0.000189   5.277250  -4.396548  -6.262440 -11.133849  -4.795294  -5.637345  40.164728   0.010164   0.007752   0.712241  -5.480552   5.231444  -8.153982  -0.018348  -0.012056 -10.766001   0.860114   6.633044  36.693836   0.006143  -0.003154  20.124840   6.712381  -1.349509 -45.038714  -0.000808   0.000852
 -2.321961   0.969941   3.970924  -2.938496  -2.700239  -3.419701   6.962595   0.834779   3.466728   1.727015  -1.082367  -0.026160  -4.778497  -0.778605  -1.037094   4.197282   2.065446  -0.997723  13.225287  13.142200  62.016751  -0.000413  11.384005   0.000199   5.542885   0.917152   5.121409   7.491952  -2.030110   0.309106  15.359579 -19.385912 -59.528196   0.002237 -16.529069   0.000190   5.248046  -4.525386  -6.391679 -10.919156  -5.317921  -4.675340  39.108813   0.010972   0.009363   2.051149  -5.502840   5.523805  -7.103703  -0.019385  -0.013736  -9.557078   1.046905   7.584659  33.135542   0.007248  -0.004250  23.707875   6.667738  -1.727557 -44.984087  -0.000622   0.000763
 -2.322810   0.981123   3.972070  -2.679670  -2.834237  -4.252876   6.296897   0.866000   4.411809   1.624891  -1.182846   0.039136  -4.447096  -0.841895  -1.326640   4.689340   1.969779  -1.743589  13.495770  13.184718  62.460210  -0.000316  11.436022   0.000247   5.479830   0.876107   5.338634   7.867032  -1.656701   0.604722  15.598551 -19.491057 -59.993165   0.001962 -16.842457   0.000100   5.218417  -4.658380  -6.518562 -10.718284  -5.814277  -3.745827  38.138494   0.011097   0.010272   3.300485  -5.516338   5.798035  -6.147604  -0.019580  -0.014334  -8.427374   1.232310   8.499504  29.667710   0.008293  -0.004464  27.323117   6.619625  -2.094852 -44.084991  -0.000151   0.001839
 -2.323614   0.991768   3.973096  -2.443653  -2.954275  -5.048262   5.672637   0.879190   5.322388   1.523947  -1.281517   0.123015  -4.140315  -0.902758  -1.591787   5.151550   1.870903  -2.460629  13.755368  13.220943  62.859210  -0.000242  11.481594   0.000275   5.420795   0.817507   5.523429   8.213938  -1.306029   0.901246  15.824789 -19.586948 -60.412506   0.001540 -17.133940  -0.000033   5.190182  -4.781374  -6.622065 -10.518926  -6.276572  -2.866959  37.244671   0.010743   0.010677   4.466546  -5.522710   6.054650  -5.274090  -0.019147  -0.014238  -7.391681   1.415470   9.368634  26.345510   0.009184  -0.004038  30.973426   6.559618  -2.452029 -42.396193   0.000435   0.003407
 -2.324368   1.001822   3.974009  -2.239833  -3.071727  -5.802868   5.093711   0.881978   6.192936   1.430906  -1.375038   0.218502  -3.854322  -0.960855  -1.836192   5.583268   1.772637  -3.142858  14.000875  13.253664  63.222074  -0.000184  11.522688   0.000288   5.365295   0.750512   5.685039   8.534447  -0.977132   1.195275  16.038538 -19.674408 -60.790464   0.001063 -17.404970  -0.000176   5.163685  -4.892448  -6.699738 -10.317324  -6.704324  -2.044040  36.420151   0.010110   0.010778   5.554917  -5.523366   6.294422  -4.475209  -0.018307  -0.013764  -6.449564   1.594397  10.192240  23.188645   0.009939  -0.003004  34.653436   6.484730  -2.799228 -40.051989   0.000983   0.004750
 -2.325072   1.011242   3.974824  -2.073586  -3.197262  -6.516776   4.559697   0.879736   7.021639   1.348547  -1.460923   0.321460  -3.586806  -1.016077  -2.062182   5.985162   1.677090  -3.787960  14.231031  13.284352  63.554504  -0.000137  11.560506   0.000293   5.312844   0.681048   5.829880   8.831687  -0.667883   1.483344  16.241030 -19.753978 -61.132405   0.000590 -17.656730  -0.000307   5.139005  -4.991361  -6.755931 -10.113011  -7.098963  -1.277758  35.658977   0.009346   0.010718   6.570779  -5.519480   6.518226  -3.744239  -0.017237  -0.013118  -5.595620   1.767194  10.972969  20.203446   0.010568  -0.001398  38.345415   6.394013  -3.135104 -37.164100   0.001298   0.005342
 -2.325125   1.019963   3.974658  -2.040687  -3.222140  -6.064191   4.378225   0.920884   6.398719   1.376722  -1.561507   0.394510  -3.470964  -0.847005  -2.076620   6.209073   1.589886  -3.690500  14.393590  13.255161  63.607806   0.000152  11.765443   0.000262   5.314091   0.400864   5.801600   8.912419  -0.693344   1.551626  16.357366 -19.537747 -60.943021  -0.000029 -17.955970  -0.000500   5.118781  -4.838054  -6.830763  -9.963657  -7.217721  -1.900028  34.735252   0.006924   0.011075   7.402440  -5.303922   6.827186  -3.132894  -0.015385  -0.010957  -5.181398   1.869007  10.326030  18.992527   0.006779   0.000175  37.377791   6.436747  -3.193553 -33.006547   0.015596   0.003761
 -2.325087   1.028042   3.974130  -2.042940  -3.236490  -5.452232   4.289882   0.987700   5.649100   1.453366  -1.662955   0.348817  -3.336877  -0.675175  -2.118489   6.367682   1.554632  -3.479056  14.475888  13.265848  63.723639   0.000542  11.982329   0.000063   5.308730   0.230894   5.794451   8.903604  -0.795934   1.596382  16.392134 -19.363354 -60.725714  -0.000363 -18.252530  -0.000470   5.095868  -4.708877  -6.757909  -9.816812  -7.254889  -2.697031  33.727867   0.004492   0.011130   8.174444  -5.101652   7.109425  -2.553814  -0.013500  -0.008955  -4.865426   1.987068   9.498501  18.071007   0.003832   0.000786  36.447537   6.472246  -3.247851 -29.430991   0.025478   0.001633
 -2.325080   1.035463   3.973416  -2.049350  -3.253233  -4.843501   4.240938   1.057847   4.913567   1.540520  -1.760464   0.266884  -3.197471  -0.513273  -2.171967   6.488453   1.548152  -3.237226  14.515473  13.296754  63.866489   0.000900  12.200313  -0.000144   5.296758   0.155947   5.835200   8.855756  -0.925977   1.613680  16.379743 -19.222803 -60.534122  -0.000463 -18.546029  -0.000330   5.065903  -4.658450  -6.647218  -9.693885  -7.275127  -3.479739  32.738750   0.002550   0.010882   8.891833  -4.910318   7.369555  -2.022719  -0.011796  -0.007243  -4.595190   2.098559   8.689984  17.241069   0.001706   0.001072  35.581389   6.505123  -3.299195 -26.165402   0.031508  -0.000777
 -2.325122   1.042211   3.972609  -2.055665  -3.274715  -4.267354   4.212456   1.124688   4.212155   1.626819  -1.853604   0.174000  -3.060667  -0.362114  -2.226757   6.585519   1.556744  -2.988645  14.531635  13.336976  64.017750   0.001174  12.412664  -0.000301   5.280532   0.139554   5.903065   8.790190  -1.065814   1.607259  16.341383 -19.106404 -60.370616  -0.000407 -18.830828  -0.000146   5.030430  -4.670265  -6.540559  -9.592735  -7.292132  -4.216288  31.799447   0.001110   0.010425   9.559418  -4.728834   7.610003  -1.538150  -0.010289  -0.005829  -4.352276   2.198909   7.934223  16.467877   0.000223   0.001207  34.773205   6.536486  -3.347001 -23.174495   0.034485  -0.003155
 -2.325211   1.048276   3.971760  -2.062078  -3.301083  -3.728112   4.194830   1.186477   3.547721   1.708719  -1.942448   0.077061  -2.929603  -0.221237  -2.279856   6.667250   1.572789  -2.743640  14.535007  13.380807  64.169064   0.001353  12.615883  -0.000398   5.262022   0.156059   5.984023   8.717160  -1.207064   1.583435  16.289058 -19.007560 -60.230856  -0.000267 -19.103476   0.000042   4.991941  -4.722201  -6.448450  -9.507431  -7.308402  -4.903504  30.917102   0.000077   0.009842  10.181145  -4.556795   7.832453  -1.095816  -0.008961  -0.004679  -4.128430   2.288801   7.234110  15.744733  -0.000775   0.001260  34.018811   6.566526  -3.391349 -20.434386   0.035248  -0.005245
